<svg xmlns="http://www.w3.org/2000/svg" viewBox="0 0 192 192" width="192" height="192">
  <circle cx="96" cy="96" r="96" fill="#68AEE6"/>
  <path d="M39.2 18.6 A96 96 0 0 1 187 65.4 Z" fill="#1D4199"/>
  <g fill="#FFFFFF">
    <path transform="translate(17,79)" d="M0 0 C3.96 0 7.92 0 12 0 C12 9.24 12 18.48 12 28 C17.28 28 22.56 28 28 28 C28 31.3 28 34.6 28 38 C24.60368528 38.08107913 21.20931384 38.14053944 17.8125 38.1875 C16.37293945 38.22520508 16.37293945 38.22520508 14.90429688 38.26367188 C5.76608444 38.35853221 5.76608444 38.35853221 2 35 C-0.41834538 31.3812614 -0.23030622 28.0973583 -0.1953125 23.828125 C-0.1924826 23.1457074 -0.18965271 22.46328979 -0.18673706 21.76019287 C-0.17558098 19.58994693 -0.15048557 17.42012029 -0.125 15.25 C-0.11496426 13.77474556 -0.10583944 12.29948463 -0.09765625 10.82421875 C-0.07565687 7.21601058 -0.04115883 3.60804625 0 0 Z"/>
    <path transform="translate(48,89)" d="M0 0 C3.63 0 7.26 0 11 0 C11 9.24 11 18.48 11 28 C7.37 28 3.74 28 0 28 C0 18.76 0 9.52 0 0 Z"/>
    <path transform="translate(57,74)" d="M0 0 C1.875 1.0625 1.875 1.0625 3 3 C3.63316583 8.90954774 3.63316583 8.90954774 1.875 11.9375 C-0.88980433 13.50422245 -2.88188517 13.38976435 -6 13 C-7.875 11.9375 -7.875 11.9375 -9 10 C-9.63316583 4.09045226 -9.63316583 4.09045226 -7.875 1.0625 C-5.11019567 -0.50422245 -3.11811483 -0.38976435 0 0 Z"/>
    <path transform="translate(91.546875,79.953125)" d="M0 0 C3.35182982 1.93280698 5.11662369 3.41593505 6.953125 6.859375 C7.200625 7.9421875 7.200625 7.9421875 7.453125 9.046875 C4.483125 10.696875 1.513125 12.346875 -1.546875 14.046875 C-1.876875 13.056875 -2.206875 12.066875 -2.546875 11.046875 C-6.17016119 9.83911294 -8.74299027 9.64646608 -12.546875 10.046875 C-15.26423402 11.85911892 -15.26423402 11.85911892 -16.546875 15.046875 C-16.83940773 19.22277977 -16.55241718 22.77060993 -13.921875 26.109375 C-10.68930075 27.38539115 -7.9860503 27.3064354 -4.546875 27.046875 C-3.04944381 25.54944381 -3.21484807 24.05863261 -2.984375 21.984375 C-2.84 20.685 -2.695625 19.385625 -2.546875 18.046875 C1.083125 18.046875 4.713125 18.046875 8.453125 18.046875 C9.23142689 28.89121462 9.23142689 28.89121462 6.390625 33.109375 C-0.16137994 37.43091017 -5.76620593 39.1217555 -13.546875 38.046875 C-19.7450393 36.20388101 -23.98025651 32.36594963 -27.546875 27.046875 C-29.4729617 21.26861489 -29.93461085 14.20893025 -27.453125 8.5546875 C-20.89951132 -0.68311902 -10.87365545 -4.0692821 0 0 Z"/>
    <path transform="translate(103,79)" d="M0 0 C3.63 0 7.26 0 11 0 C11 4.62 11 9.24 11 14 C15.62 14 20.24 14 25 14 C25 9.38 25 4.76 25 0 C28.63 0 32.26 0 36 0 C36 12.54 36 25.08 36 38 C32.37 38 28.74 38 25 38 C25 33.38 25 28.76 25 24 C20.38 24 15.76 24 11 24 C11 28.62 11 33.24 11 38 C7.37 38 3.74 38 0 38 C0 25.46 0 12.92 0 0 Z"/>
    <path transform="translate(142,79)" d="M0 0 C4.39561039 -0.11629782 8.79082429 -0.18728634 13.1875 -0.25 C14.43337891 -0.28351563 15.67925781 -0.31703125 16.96289062 -0.3515625 C18.7659668 -0.37089844 18.7659668 -0.37089844 20.60546875 -0.390625 C22.26292114 -0.4220459 22.26292114 -0.4220459 23.95385742 -0.45410156 C27.7169083 0.1068726 29.36670112 1.2936129 32 4 C32.3125 7.25 32.3125 7.25 32 10 C28.7 10 25.4 10 22 10 C22 19.24 22 28.48 22 38 C18.37 38 14.74 38 11 38 C11 28.76 11 19.52 11 10 C7.37 10 3.74 10 0 10 C0 6.7 0 3.4 0 0 Z"/>
  </g>
</svg>
